<?xml version="1.0" encoding="UTF-8" standalone="no"?>
<!-- Created with Inkscape (http://www.inkscape.org/) -->

<svg
   width="55.000004mm"
   height="41mm"
   viewBox="0 0 55.000004 41"
   version="1.1"
   id="svg1"
   xmlns="http://www.w3.org/2000/svg"
   xmlns:svg="http://www.w3.org/2000/svg">
  <defs
     id="defs1" />
  <g
     id="layer1"
     transform="translate(-31.750001,-122.76666)">
    <path
       style="stroke-linejoin:round"
       d="m 45.31453,134.05541 -0.002,2.5 27.925782,0.01 0.002,-2.5 z"
       id="path11" />
    <path
       style="stroke-linejoin:round"
       d="m 46.046951,127.60423 a 2.0002,2.0002 0 0 0 -1.429687,0.60157 l -1.8125,1.85351 a 2.0002,2.0002 0 0 0 -0.566406,1.28125 c 0,0 -0.266173,4.5263 -0.5,9.6836 -0.233828,5.15729 -0.446428,10.83757 -0.302735,13.60742 0.268245,5.17071 1.085938,7.52929 1.085938,7.52929 a 2.0002,2.0002 0 0 0 1.876953,1.31446 l 29.804687,0.0117 a 2.0002,2.0002 0 0 0 1.800782,-1.12891 c 0,0 0.296459,-0.686 0.519531,-1.77344 0.223072,-1.08744 0.463872,-2.77262 0.605469,-5.35742 0.152886,-2.79087 -0.07131,-8.61612 -0.316407,-13.92773 -0.245092,-5.31162 -0.523437,-9.99024 -0.523437,-9.99024 a 2.0002,2.0002 0 0 0 -0.59375,-1.30664 l -1.84375,-1.8164 a 2.0002,2.0002 0 0 0 -1.402344,-0.57422 z m 0.839844,4.00196 24.742188,0.006 0.705078,0.69531 c 0.03757,0.63592 0.259373,4.30152 0.484375,9.17773 0.243627,5.27986 0.438301,11.29829 0.316406,13.52344 -0.124954,2.28098 -0.328534,3.61096 -0.496094,4.47852 l -26.679687,-0.0117 c -0.184916,-0.97499 -0.398857,-2.53641 -0.529297,-5.05079 -0.116198,-2.23984 0.07229,-8.09488 0.304687,-13.2207 0.214487,-4.7307 0.42097,-8.26713 0.457032,-8.88672 z"
       id="path8" />
    <path
       style="stroke-linejoin:round"
       d="m 43.582108,146.83666 -1.244141,2.16796 11.425781,6.56836 -0.03125,5.11524 2.5,0.0156 0.03516,-5.84571 a 1.250125,1.250125 0 0 0 -0.626954,-1.08984 z"
       id="path9" />
    <path
       style="stroke-linejoin:round"
       d="m 74.212967,147.14525 -11.326172,6.55859 a 1.250125,1.250125 0 0 0 -0.623047,1.06446 l -0.08984,5.93359 2.5,0.0371 0.08008,-5.22656 10.710937,-6.20508 z"
       id="path10" />
    <g
       id="path14"
       transform="matrix(0.8865525,0,0,0.8865525,28.398046,124.73771)">
      <path
         style="fill:#030000;stroke-linejoin:round"
         d="m 21.792106,33.878875 4.257585,2.408471 -0.01964,0.448067 -4.258914,0.0085 z"
         id="path12" />
      <path
         style="stroke-linejoin:round"
         d="m 22.162109,33.226562 a 0.750075,0.750075 0 0 0 -1.11914,0.646485 l -0.02148,2.865234 a 0.750075,0.750075 0 0 0 0.751953,0.75586 l 4.257813,-0.0078 a 0.750075,0.750075 0 0 0 0.748047,-0.71875 l 0.01953,-0.447266 a 0.750075,0.750075 0 0 0 -0.378906,-0.685546 z m 0.371094,1.933594 1.46875,0.828125 -1.474609,0.0039 z"
         id="path23" />
    </g>
    <g
       id="path27"
       transform="translate(25.695389,120.54368)">
      <path
         style="fill:#030000;stroke-linecap:round;stroke-linejoin:round"
         d="M 13.337198,8.724195 7.4830155,3.6878396"
         id="path26" />
      <path
         style="stroke-linecap:round;stroke-linejoin:round"
         d="M 7.3886719,2.4414063 A 1.25,1.25 0 0 0 6.5351562,2.8730469 1.25,1.25 0 0 0 6.6679687,4.6347656 L 12.521484,9.671875 A 1.25,1.25 0 0 0 14.285156,9.5390625 1.25,1.25 0 0 0 14.152344,7.7773437 L 8.2988281,2.7402344 A 1.25,1.25 0 0 0 7.3886719,2.4414063 Z"
         id="path31" />
    </g>
    <g
       id="path28"
       transform="translate(25.695389,120.54368)">
      <path
         style="fill:#030000;stroke-linecap:round;stroke-linejoin:round"
         d="M 54.150345,16.263672 59.363206,13.9823"
         id="path37" />
      <path
         style="stroke-linecap:round;stroke-linejoin:round"
         d="m 58.861328,12.837891 -5.212891,2.28125 a 1.25,1.25 0 0 0 -0.642578,1.646484 1.25,1.25 0 0 0 1.646485,0.642578 l 5.21289,-2.28125 a 1.25,1.25 0 0 0 0.642578,-1.646484 1.25,1.25 0 0 0 -1.646484,-0.642578 z"
         id="path38" />
    </g>
    <path
       style="font-variation-settings:'wght' 800;fill:none;fill-opacity:0.579176;stroke:none;stroke-width:2.87155;stroke-linecap:round;stroke-linejoin:round;stroke-dasharray:none;stroke-opacity:1"
       d="m 38.224337,144.11357 -5.716271,-1.14326"
       id="path33" />
    <g
       id="path13"
       transform="translate(25.695389,120.54368)">
      <path
         style="fill:#030000;stroke-linecap:round;stroke-linejoin:round"
         d="M 53.845562,8.724195 59.699746,3.6878396"
         id="path39" />
      <path
         style="stroke-linecap:round;stroke-linejoin:round"
         d="M 59.792969,2.4414063 A 1.25,1.25 0 0 0 58.884766,2.7402344 L 53.03125,7.7773437 A 1.25,1.25 0 0 0 52.898437,9.5390625 1.25,1.25 0 0 0 54.660156,9.671875 L 60.515625,4.6347656 A 1.25,1.25 0 0 0 60.646484,2.8730469 1.25,1.25 0 0 0 59.792969,2.4414063 Z"
         id="path40" />
    </g>
    <g
       id="path22"
       transform="translate(25.695389,120.54368)">
      <path
         style="fill:#030000;stroke-linecap:round;stroke-linejoin:round"
         d="M 13.032415,16.263672 7.8195555,13.9823"
         id="path44" />
      <path
         style="stroke-linecap:round;stroke-linejoin:round"
         d="m 7.3632812,12.818359 a 1.25,1.25 0 0 0 -0.6894531,0.66211 1.25,1.25 0 0 0 0.6445313,1.646484 l 5.2128906,2.28125 a 1.25,1.25 0 0 0 1.646484,-0.642578 1.25,1.25 0 0 0 -0.644531,-1.646484 l -5.2128905,-2.28125 a 1.25,1.25 0 0 0 -0.9570313,-0.01953 z"
         id="path45" />
    </g>
    <g
       id="g24"
       transform="matrix(-0.8865525,0,0,0.8865525,90.042471,124.73771)">
      <path
         style="fill:#030000;stroke-linejoin:round"
         d="m 21.792106,33.878875 4.257585,2.408471 -0.01964,0.448067 -4.258914,0.0085 z"
         id="path15" />
      <path
         style="stroke-linejoin:round"
         d="m 22.162109,33.226562 a 0.750075,0.750075 0 0 0 -1.11914,0.646485 l -0.02148,2.865234 a 0.750075,0.750075 0 0 0 0.751953,0.75586 l 4.257813,-0.0078 a 0.750075,0.750075 0 0 0 0.748047,-0.71875 l 0.01953,-0.447266 a 0.750075,0.750075 0 0 0 -0.378906,-0.685546 z m 0.371094,1.933594 1.46875,0.828125 -1.474609,0.0039 z"
         id="path24" />
    </g>
  </g>
</svg>
